<?xml version="1.0" encoding="UTF-8" standalone="no"?>
<!DOCTYPE svg PUBLIC "-//W3C//DTD SVG 1.1//EN" "http://www.w3.org/Graphics/SVG/1.1/DTD/svg11.dtd">
<svg width="100%" height="100%" viewBox="0 0 1344 1344" version="1.1" xmlns="http://www.w3.org/2000/svg" xmlns:xlink="http://www.w3.org/1999/xlink" xml:space="preserve" xmlns:serif="http://www.serif.com/" style="fill-rule:evenodd;clip-rule:evenodd;stroke-linejoin:round;stroke-miterlimit:2;">
    <path d="M673.24,0.001C1043.55,0.662 1344,301.521 1344,672C1344,1042.89 1042.89,1344 672,1344C301.113,1344 0,1042.89 0,672C0,301.15 301.053,0.06 671.846,0L672.154,0L673.24,0.001Z" style="fill:url(#_Linear1);"/>
    <g transform="matrix(2.91973,0,0,2.91973,-279.474,-742.513)">
        <path d="M238.35,517.66C238.35,526.123 236.283,533.415 232.149,539.535C228.015,545.655 222.09,550.342 214.376,553.597C206.661,556.853 197.465,558.48 186.788,558.48C181.579,558.48 176.599,558.187 171.846,557.601C167.094,557.015 162.618,556.153 158.419,555.013C154.219,553.874 150.394,552.491 146.944,550.863L146.944,528.793C152.738,531.332 159.216,533.627 166.378,535.677C173.539,537.728 180.831,538.754 188.253,538.754C194.307,538.754 199.336,537.956 203.34,536.361C207.344,534.766 210.323,532.487 212.276,529.525C214.229,526.563 215.206,523.096 215.206,519.125C215.206,514.893 214.066,511.312 211.788,508.383C209.509,505.453 206.075,502.767 201.485,500.326C196.895,497.885 191.15,495.264 184.249,492.465C179.561,490.577 175.085,488.428 170.821,486.019C166.557,483.61 162.764,480.778 159.444,477.523C156.124,474.268 153.503,470.411 151.583,465.951C149.662,461.491 148.702,456.234 148.702,450.179C148.702,442.107 150.639,435.205 154.512,429.476C158.386,423.747 163.855,419.353 170.919,416.293C177.982,413.233 186.234,411.703 195.674,411.703C203.161,411.703 210.209,412.484 216.817,414.047C223.425,415.609 229.919,417.823 236.299,420.687L228.878,439.535C223.018,437.126 217.338,435.205 211.836,433.773C206.335,432.341 200.72,431.625 194.991,431.625C190.043,431.625 185.844,432.373 182.393,433.871C178.943,435.368 176.322,437.468 174.532,440.17C172.741,442.872 171.846,446.078 171.846,449.789C171.846,453.955 172.872,457.455 174.922,460.287C176.973,463.119 180.163,465.707 184.493,468.051C188.822,470.394 194.405,472.998 201.241,475.863C209.118,479.118 215.808,482.536 221.309,486.117C226.81,489.698 231.026,493.978 233.956,498.959C236.885,503.939 238.35,510.173 238.35,517.66ZM348.311,517.66C348.311,526.123 346.244,533.415 342.11,539.535C337.976,545.655 332.051,550.342 324.336,553.597C316.622,556.853 307.426,558.48 296.749,558.48C291.54,558.48 286.56,558.187 281.807,557.601C277.055,557.015 272.579,556.153 268.379,555.013C264.18,553.874 260.355,552.491 256.905,550.863L256.905,528.793C262.699,531.332 269.177,533.627 276.338,535.677C283.5,537.728 290.792,538.754 298.213,538.754C304.268,538.754 309.297,537.956 313.301,536.361C317.305,534.766 320.284,532.487 322.237,529.525C324.19,526.563 325.167,523.096 325.167,519.125C325.167,514.893 324.027,511.312 321.749,508.383C319.47,505.453 316.036,502.767 311.446,500.326C306.856,497.885 301.111,495.264 294.21,492.465C289.522,490.577 285.046,488.428 280.782,486.019C276.517,483.61 272.725,480.778 269.405,477.523C266.085,474.268 263.464,470.411 261.544,465.951C259.623,461.491 258.663,456.234 258.663,450.179C258.663,442.107 260.6,435.205 264.473,429.476C268.347,423.747 273.816,419.353 280.879,416.293C287.943,413.233 296.195,411.703 305.635,411.703C313.122,411.703 320.17,412.484 326.778,414.047C333.386,415.609 339.88,417.823 346.26,420.687L338.838,439.535C332.979,437.126 327.299,435.205 321.797,433.773C316.296,432.341 310.681,431.625 304.952,431.625C300.004,431.625 295.805,432.373 292.354,433.871C288.904,435.368 286.283,437.468 284.493,440.17C282.702,442.872 281.807,446.078 281.807,449.789C281.807,453.955 282.833,457.455 284.883,460.287C286.934,463.119 290.124,465.707 294.454,468.051C298.783,470.394 304.366,472.998 311.202,475.863C319.079,479.118 325.769,482.536 331.27,486.117C336.771,489.698 340.987,493.978 343.917,498.959C346.846,503.939 348.311,510.173 348.311,517.66ZM502.608,484.945C502.608,495.948 501.225,505.957 498.458,514.974C495.691,523.991 491.54,531.739 486.006,538.217C480.473,544.694 473.539,549.691 465.206,553.207C456.872,556.722 447.107,558.48 435.909,558.48C424.516,558.48 414.636,556.722 406.27,553.207C397.904,549.691 390.971,544.678 385.469,538.168C379.968,531.657 375.85,523.877 373.116,514.828C370.381,505.778 369.014,495.752 369.014,484.75C369.014,470.036 371.439,457.194 376.29,446.224C381.14,435.254 388.529,426.726 398.458,420.638C408.386,414.551 420.935,411.508 436.104,411.508C450.948,411.508 463.285,414.535 473.116,420.59C482.947,426.644 490.32,435.157 495.235,446.127C500.15,457.097 502.608,470.036 502.608,484.945ZM393.624,484.945C393.624,495.948 395.121,505.469 398.116,513.51C401.111,521.55 405.717,527.735 411.934,532.064C418.152,536.394 426.143,538.558 435.909,538.558C445.739,538.558 453.747,536.394 459.932,532.064C466.117,527.735 470.674,521.55 473.604,513.51C476.534,505.469 477.999,495.948 477.999,484.945C477.999,468.213 474.662,455.111 467.989,445.638C461.316,436.166 450.687,431.429 436.104,431.429C426.338,431.429 418.314,433.578 412.032,437.875C405.749,442.172 401.111,448.308 398.116,456.283C395.121,464.258 393.624,473.812 393.624,484.945Z" style="fill:white;"/>
    </g>
    <defs>
        <linearGradient id="_Linear1" x1="0" y1="0" x2="1" y2="0" gradientUnits="userSpaceOnUse" gradientTransform="matrix(1180.66,-1344,1344,1180.66,163.341,1344)"><stop offset="0" style="stop-color:rgb(0,130,201);stop-opacity:1"/><stop offset="1" style="stop-color:rgb(28,175,255);stop-opacity:1"/></linearGradient>
    </defs>
</svg>
